<svg xmlns="http://www.w3.org/2000/svg" viewBox="0 0 64 64" width="64" height="64">
  <ellipse cx="32" cy="56" rx="16" ry="5" fill="#000" opacity="0.18"/>
  <path d="M26 56C26 40 24 30 22 22" stroke="#7cb342" stroke-width="3.5" stroke-linecap="round"/>
  <path d="M32 56V18" stroke="#8bc34a" stroke-width="4" stroke-linecap="round"/>
  <path d="M38 56C38 40 40 30 42 22" stroke="#7cb342" stroke-width="3.5" stroke-linecap="round"/>
  <path d="M32 30c-3-5-9-6-13-4 2 5 7 7 13 4z" fill="#9ccc5a"/>
  <path d="M32 26c3-5 9-6 13-4-2 5-7 7-13 4z" fill="#9ccc5a"/>
  <g fill="#aed581" stroke="#7cb342" stroke-width="1">
    <ellipse cx="32" cy="16" rx="3" ry="6"/>
    <ellipse cx="22" cy="20" rx="2.4" ry="5"/>
    <ellipse cx="42" cy="20" rx="2.4" ry="5"/>
  </g>
</svg>
